<?xml version="1.0" encoding="utf-8"?>
<!-- Generator: Adobe Illustrator 23.0.1, SVG Export Plug-In . SVG Version: 6.00 Build 0)  -->
<svg version="1.1" id="Livello_1" xmlns="http://www.w3.org/2000/svg" xmlns:xlink="http://www.w3.org/1999/xlink" x="0px" y="0px"
	 viewBox="0 0 800 850.4" style="enable-background:new 0 0 800 850.4;" xml:space="preserve">
<style type="text/css">
	.st0{fill-rule:evenodd;clip-rule:evenodd;fill:#8E918D;}
	.st1{display:none;fill:#0C0058;}
	.st2{fill:#FFFFFF;}
	.st3{fill:#4E3FD0;}
	.st4{fill:#FF5E16;}
</style>
<title>map-marker</title>
<desc>Created with Sketch.</desc>
<g id="Vivid.JS">
	<g id="Vivid-Icons" transform="translate(-125.000000, -643.000000)">
		<g id="Icons" transform="translate(37.000000, 169.000000)">
			<g id="map-marker" transform="translate(78.000000, 468.000000)">
				<g transform="translate(10.000000, 6.000000)">
					<path id="Shape" class="st0" d="M400,34.4c174.7,0,316.2,127.4,316.2,284.6c0,256.7-316.2,528.6-316.2,528.6
						S83.8,577.9,83.8,319C83.8,161.8,225.3,34.4,400,34.4z"/>
					<circle id="Oval" class="st1" cx="400" cy="350.6" r="158.1"/>
				</g>
			</g>
		</g>
	</g>
</g>
<path class="st2" d="M125.9,469.6c-27.6-46.5-41.4-99.3-41.4-158.3s13.8-111.9,41.4-158.3C153.4,106.4,191,69.8,238.7,43
	C286.4,16.2,340.1,2.8,400,2.8S513.6,16.2,561.3,43c47.7,26.8,85.3,63.4,112.9,109.9c27.6,46.5,41.4,99.3,41.4,158.3
	s-13.8,111.9-41.4,158.3c-27.6,46.5-65.2,83.1-112.9,109.9c-47.7,26.8-101.4,40.2-161.3,40.2s-113.6-13.4-161.3-40.2
	C191,552.7,153.4,516.1,125.9,469.6L125.9,469.6z"/>
<path class="st3" d="M125.9,469.6c-27.6-46.5-41.4-99.3-41.4-158.3s13.8-111.9,41.4-158.3C153.4,106.4,191,69.8,238.7,43
	C286.4,16.2,340.1,2.8,400,2.8S513.6,16.2,561.3,43c47.7,26.8,85.3,63.4,112.9,109.9c27.6,46.5,41.4,99.3,41.4,158.3
	s-13.8,111.9-41.4,158.3c-27.6,46.5-65.2,83.1-112.9,109.9c-47.7,26.8-101.4,40.2-161.3,40.2s-113.6-13.4-161.3-40.2
	C191,552.7,153.4,516.1,125.9,469.6L125.9,469.6z M601.5,436.5c20.1-36.2,30.1-78,30.1-125.3s-10-89.2-30.1-125.9
	c-20.1-36.6-47.5-65.2-82.1-85.7C484.7,79.3,444.9,69,400,69s-84.7,10.2-119.3,30.7c-34.7,20.5-62,49-82.1,85.7
	c-20.1,36.6-30.1,78.6-30.1,125.9s10,89,30.1,125.3c20.1,36.2,47.5,64.8,82.1,85.7c34.7,20.9,74.4,31.3,119.3,31.3
	s84.7-10.4,119.4-31.3C554,501.3,581.4,472.8,601.5,436.5z"/>
<path class="st4" d="M590.7,316c-0.5,37.1-8.8,69.9-24.6,98.4c-16.7,29.9-39.2,53.5-67.7,70.7c-28.7,17-61.4,25.7-98.4,25.7
	s-69.7-8.6-98.2-25.7c-28.7-17.2-51.2-40.9-67.7-70.7c-15.5-28-23.8-60.3-24.6-96.6L226,307c21.4-13.5,48.8-14,70.6-1l0.3,0.2
	c21.3,12.5,47.6,12.5,68.9-0.2l0.7-0.5c21.4-12.7,48.1-12.7,69.4,0.2h0.2c21.3,12.8,47.9,13,69.2,0.2c10.6-6.4,22.6-9.5,34.6-9.5
	c12,0,24.6,3.2,35.5,10L590.7,316L590.7,316z"/>
</svg>
