<?xml version="1.0" encoding="utf-8"?>
<!-- Generator: Adobe Illustrator 23.0.1, SVG Export Plug-In . SVG Version: 6.00 Build 0)  -->
<svg version="1.1" id="Livello_1" xmlns="http://www.w3.org/2000/svg" xmlns:xlink="http://www.w3.org/1999/xlink" x="0px" y="0px"
	 viewBox="0 0 1108 495" style="enable-background:new 0 0 1108 495;" xml:space="preserve">
<style type="text/css">
	.st0{display:none;fill:#4E3FD0;}
	.st1{fill:#4E3FD0;}
</style>
<path class="st0" d="M0,27.8c19.2-21,71-50.4,124.8,0c53.8,50.4,113.2,21.7,152.2,0c2.4-1.3,5-2.9,7.9-4.6
	c25.9-15.5,68.4-40.8,116.9,4.6c53.8,50.4,123.9,21,152.2,0c19.2-21,71-50.4,124.8,0c53.8,50.4,113.2,21.7,152.2,0
	c2.4-1.3,5-2.9,7.9-4.6c25.9-15.5,68.4-40.8,116.9,4.6c53.8,50.4,123.9,21,152.2,0V495H0V27.8z"/>
<path class="st0" d="M1573,40.4"/>
<path class="st0" d="M548,22.4c43.7-27.5,99.4-28.5,143.7-2.1l0.7,0.4c43.3,25.4,96.9,25.4,140.3-0.4l1.4-1
	c43.7-25.8,98-25.8,141.3,0.4h0.4c43.3,26.1,97.6,26.5,141,0.4c21.7-13.1-33,117.3-8.6,117.3s-1.4,89.1,20.6,102.9l-6.3,262.7L0,495
	"/>
<path class="st0" d="M1108,495H0c0-38,0-339.7,0-419.9l-44.4-54.4c43.3,25.4,96.9,25.4,140.3-0.4l1.4-1c43.7-25.8,98-25.8,141.3,0.4
	h0.4c43.3,26.1,97.6,26.5,141,0.4C401.5,7,425.9,0.8,450.3,0.8c24.4,0,50.2,6.5,72.2,20.3l31.3,19.6l0-0.1l-212,3.8l34-22
	c43.7-27.5,99.4-28.5,143.7-2.1l0.7,0.4c43.3,25.4,96.9,25.4,140.3-0.4l1.4-1c43.7-25.8,98-25.8,141.3,0.4h0.4
	c43.3,26.1,97.6,26.5,141,0.4C966.2,7,990.7,0.8,1015.1,0.8c24.4,0,50.2,6.5,72.2,20.3l31.3,19.6L1108,34"/>
<path class="st1" d="M1108,495H0c0-38,0-339.7,0-419.9V37.4c10.4,2.7,52.5,8.8,95.8-17l1.4-1c43.7-25.8,98-25.8,141.3,0.4h0.4
	c43.3,26.1,97.6,26.5,141,0.4C401.5,7,425.9,0.8,450.3,0.8c24.4,0,50.2,6.5,72.2,20.3l31.3,19.6l0-0.1l-212,3.8l34-22
	c43.7-27.5,99.4-28.5,143.7-2.1l0.7,0.4c43.3,25.4,96.9,25.4,140.3-0.4l1.4-1c43.7-25.8,98-25.8,141.3,0.4h0.4
	c43.3,26.1,97.6,26.5,141,0.4C966.2,7,990.7,0.8,1015.1,0.8c24.4,0,50.2,6.5,72.2,20.3l31.3,19.6L1108,34"/>
</svg>
