<?xml version="1.0" encoding="utf-8"?>
<!-- Generator: Adobe Illustrator 23.0.1, SVG Export Plug-In . SVG Version: 6.00 Build 0)  -->
<svg version="1.1" id="Livello_1" xmlns="http://www.w3.org/2000/svg" xmlns:xlink="http://www.w3.org/1999/xlink" x="0px" y="0px"
	 viewBox="0 0 653.3 88.7" style="enable-background:new 0 0 653.3 88.7;" xml:space="preserve">
<style type="text/css">
	.st0{clip-path:url(#SVGID_2_);fill:#FFFFFF;}
</style>
<g>
	<defs>
		<rect id="SVGID_1_" x="-98.2" y="-254.4" width="841.9" height="595.3"/>
	</defs>
	<clipPath id="SVGID_2_">
		<use xlink:href="#SVGID_1_"  style="display:none;overflow:visible;"/>
	</clipPath>
	<path class="st0" d="M412.8,67.6c5.7-2.2,10.7-4.2,15.8-5.9c1.9-0.7,4-1.1,6-1.1c1.3,0,3.2,0.6,3.6,1.5c0.4,0.8-0.5,2.6-1.3,3.6
		c-1.2,1.7-2.8,3.1-4.2,4.7c0.2,0.5,0.5,0.9,0.7,1.4c9.9-3.4,19.7-6.7,29.6-10.1c0.1,0.3,0.2,0.6,0.3,0.9c-2.1,2.3-4.1,4.6-6.2,6.9
		c0.2,0.4,0.4,0.9,0.6,1.3c1.4,0,3,0.4,4.3-0.1c7.1-2.3,14.1-4.7,21.1-7.1c3.1-1,6.1-2.2,9.2-3c0.9-0.2,2.1,0.7,3.1,1
		c-0.6,0.9-1.1,2.1-2,2.7c-0.9,0.7-2.2,1.1-3.8,0.8c0.9-0.8,1.8-1.6,2.9-2.4c-3.7-0.6-11.6,3.4-13.2,6.6c-0.9,1.9-0.4,3.2,1.8,3.1
		c2.9-0.2,5.8-0.3,8.5-1.2c8.1-2.7,16-5.8,24.1-8.7c2.5-0.9,5.1-1.5,7.6-2c0.8-0.2,1.8,0.6,2.8,1c-0.5,0.9-0.9,2-1.6,2.6
		c-1.1,0.8-2.4,1.2-4.1,1.1c0.9-0.8,1.8-1.6,2.8-2.4c-4.9-1-12.4,3.9-13.7,9.5c2.4,0,4.7,0.6,6.7-0.1c10.7-3.6,21.3-7.5,31.9-11.4
		c1.4-0.5,2.5-1.9,3.5-3c7.2-7.9,15.3-14.7,25.1-19.1c2.4-1.1,5-1.9,7.5-2.2c2.6-0.3,3.7,1.6,2,3.6c-1.9,2.3-4.1,4.6-6.6,6
		c-7.8,4.5-15.9,8.6-23.8,12.9c-4.4,2.3-6.1,4-7.9,8.5c4.8-1.9,9.5-3.8,14.2-5.4c2.3-0.8,4.7-1.4,7-1.5c1.3-0.1,2.7,1,4.1,1.5
		c-0.5,1.3-0.8,2.7-1.6,3.7c-1.2,1.7-2.8,3.1-4.2,4.6c0.3,0.4,0.5,0.9,0.8,1.3c9.8-3.4,19.7-6.7,29.5-10.1c0.1,0.2,0.3,0.5,0.4,0.7
		c-2.1,2.3-4.2,4.7-6.2,7c0.2,0.4,0.4,0.8,0.6,1.3c1.5,0,3,0.3,4.4,0c7.9-1.7,15.7-3.5,22.5-8.3c2.3-1.6,4.8-3.8,8.3-2.2
		c0.5,0.3,1.7-1.3,2.7-1.5c2.1-0.4,4.3-0.5,6.4-0.7c-0.4,2-0.4,4.1-1.3,5.9c-0.8,1.7-2.3,2.9-4.1,5.1c8.7-0.4,15.9-3.5,23.6-5.3
		c-0.5,0.5-1,1.1-1.6,1.4c-7.4,3-14.9,5.4-23.1,5.5c-2,0-3.9,0.9-5.9,1.5c-5.6,1.6-9,0.4-11.1-4.1c-5.2,1.4-10.4,2.8-15.6,4.1
		c-0.9,0.2-1.9,0.3-2.9,0.4c-4.8,0.3-5.5-0.5-4.7-5.7c-2.6,0.8-4.9,1.5-7.3,2.2c-4.8,1.4-9.7,2.9-14.6,4.1c-1.1,0.3-2.4-0.6-3.7-0.9
		c0.5-1.1,0.7-2.5,1.5-3.4c1.5-1.9,3.3-3.7,4.6-6.1c-10.2,0.6-18.8,5.2-27.5,9.9c-0.3-0.2-0.6-0.4-0.8-0.6c1.1-2.4,2.2-4.7,3.7-7.7
		c-2.8,1-5.2,1.8-7.5,2.6c-7.2,2.3-14.4,4.6-21.7,6.8c-1.4,0.4-2.9,0.4-4.3,0.4c-4.9,0.1-5.7-0.7-5.2-6.1c-1.4,0.5-2.5,0.9-3.7,1.2
		c-6.6,1.6-13.2,3.6-19.9,4.7c-4.6,0.7-5.4-0.5-5.5-5.2c-4.5,1.1-9,2.3-13.5,3.4c-1,0.3-2.1,0.4-3.2,0.4c-4.7,0.2-5.4-0.7-4.1-5.8
		c-2.6,0.8-5,1.4-7.3,2.1c-4.7,1.4-9.4,2.9-14.2,4.1c-1.3,0.3-2.9-0.5-4.3-0.9c0.6-1.2,1-2.6,1.8-3.7c1.4-1.8,3.1-3.5,4.4-5.7
		c-10.3,0.5-18.9,5.1-27.5,9.9c-0.3-0.2-0.5-0.4-0.8-0.7c1.2-2.5,2.4-4.9,3.8-7.8C401,68,391,71.8,380.7,75.3
		c-15.5,5.3-31.2,10-47.5,12c-2.8,0.3-5.8,0.3-8.6-0.3c-8.7-1.6-12.6-7.5-9.4-15.8c2.1-5.4,5.9-10.1,9-15.1c0.7-1.1,1.7-2,3.1-3.6
		c-3-0.6-5.4-1.1-7.8-1.6c-14.6-3-28.6-7.6-41.4-15.4c-3-1.8-5.7-4.3-8.5-6.4c0.2-0.3,0.4-0.6,0.7-0.9c0.3,0,0.7,0,0.9,0.1
		c13.6,11.9,30.5,16.5,47.4,21.1c6.9,1.9,11.7,0.3,17.3-4.4c24.5-20.7,53.3-31.9,85-35.6c4-0.5,8.2,0.1,12.1,1.1
		c6.7,1.7,9.4,7.7,5.4,13.4c-3.3,4.7-7.7,9-12.4,12.3c-13.2,9.3-28.7,12.8-44.3,15.5c-16.4,2.9-32.8,3-49.3,1.1
		c-1.5-0.2-3.7,0.7-4.5,1.8c-3.7,5.1-7.8,10.2-10.4,16c-3.9,8.8,1.1,16.1,10.7,15.6c7.3-0.3,14.6-1.6,21.7-3.3
		C370.5,78,390.5,71,410,62.5c2.8-1.2,5.4-3.2,7.5-5.4c7.2-7.5,15-14,24.4-18.3c2.4-1.1,5-2,7.5-2.3c2.8-0.4,3.9,1.6,2.1,3.8
		c-1.8,2.2-3.9,4.4-6.4,5.8c-7.7,4.4-15.6,8.7-23.5,12.7C417.7,60.6,414.9,63.3,412.8,67.6 M331.1,49.9c0.3,0.5,0.7,0.9,1,1.4
		c0.8,0.2,1.5,0.4,2.3,0.5c14.6,1.6,29.1,1.4,43.6-0.9c13.4-2.1,26.5-5.3,38.6-11.3c6.9-3.5,13.5-7.5,18.3-13.8
		c2.3-3.1,4.1-6.5,2.3-10.4c-1.7-3.6-5.5-4.4-9-4.3c-6.7,0.2-13.6,0.2-20,1.6c-27.1,6-52.4,16.2-73.5,35.1
		C333.7,48.7,332.3,49.2,331.1,49.9 M450.8,39l-1-1.6c-11.2,3.6-20.4,10.2-28.3,18.9C431.8,51.4,442.4,46.8,450.8,39 M583.5,38.5
		c-6-1.1-24.3,10.5-29.8,18.7C564.8,51.5,575.3,46.9,583.5,38.5 M623.2,70.3c0.4-3.5,0.6-6.1,0.9-8.9c-2.4,1.4-5,2.6-7.3,4.2
		c-1,0.7-1.9,2.6-1.6,3.5c0.3,0.9,2.2,1.7,3.4,1.8C620.3,71.1,622.1,70.5,623.2,70.3 M634.1,60.1c-0.4-0.3-0.7-0.6-1.1-0.9
		c-4.7,0-8.5,5-6.3,9.8C629.4,65.7,631.7,62.9,634.1,60.1"/>
	<path class="st0" d="M115.7,62.1c-9.2,1.2-15.8,6-22.7,10c-0.3-0.4-0.6-0.8-0.9-1.3c2.5-1.7,5-3.4,7.4-5.2c-0.4-0.5-0.8-1-1.2-1.5
		c-3.6,1.3-7.2,2.7-10.8,3.9c-17.6,6.2-35.1,12.5-52.9,18.3c-7.5,2.4-15.4,3-23.2,1.3c-2.5-0.6-5.1-1.6-7.2-3.1
		c-4.8-3.4-5.7-9.3-1.8-13.5c3-3.2,6.7-6,10.5-8c12.6-6.5,26.4-8.8,40.4-10.1c1.6-0.1,3.2-0.4,5.7-0.7c-16.1-5.6-18-7.9-16.4-19.3
		C28.3,27.8,14.5,21.4,6.7,6.9c-1.1-2-1.5-4.3-2.2-6.5C4.8,0.3,5,0.1,5.3,0c0.3,0.3,0.9,0.4,1,0.8c3,11.4,11.1,18.4,20.7,23.9
		c4.4,2.5,9.1,4.3,13.8,6.1c1,0.4,3.1,0.1,3.7-0.7c6.4-8.3,15.2-13.2,24.4-17.6C82.4,6.1,96.6,1.9,111.6,1c4.2-0.3,8.7,0.2,12.8,1.3
		c6.4,1.7,8.9,7.9,5.1,13.3c-2.5,3.6-6.1,6.9-9.9,9.2c-10.9,6.6-23.1,9.4-35.7,10.8c-13,1.5-26,1.4-38.6-2c-3.1,4.6-1.2,11,4.4,13.6
		c4,1.8,8.4,2.8,12.7,3.6c4.1,0.8,8.2,0.9,12.4,1.2c0,0.3,0,0.6,0.1,1c-1.2,0.1-2.5,0.4-3.7,0.3c-16.6-0.3-33,1.9-48.7,7.3
		c-5.5,1.9-10.8,4.9-15.6,8.1c-2.3,1.6-4,4.9-4.7,7.7c-0.9,3.8,2.4,7.5,6.8,9c6.8,2.3,13.6,1.4,20.4,0.2c16.4-2.8,31.6-9.2,47-15.1
		c6.2-2.4,12.3-4.8,18.4-7.3c1.8-0.8,3.4-2,5.6-3.4c0.3,1.5,0.6,3,0.9,4.8c0.7-0.2,1.6-0.3,2.4-0.6c2.8-1,5.6-2.4,8.5-3.1
		c1.5-0.4,3.2,0.3,4.8,0.5c-0.3,1.4-0.5,2.9-0.8,4.3c-0.1,0.6-0.5,1.1-0.7,1.7c-1.3,3.3-0.7,4.2,2.9,3.7c2.6-0.4,5.3-0.9,7.7-1.8
		c8.1-3.3,16.2-6.8,24.2-10.4c1.4-0.6,2.6-2.1,3.4-3.4c3-5.3,11.9-10,18.6-9c-1.2,1.4-2,2.7-3.1,3.4c-3.5,2.3-7.1,4.5-10.8,6.6
		c-3.8,2.2-3.9,2.6-1.3,6.3c0.3,0.5,0.7,1,1.2,1.7c-1.3,1.2-2.8,2.3-3.9,3.6c-0.8,0.9-1.1,2.3-1.6,3.4c1.2,0.3,2.5,1.1,3.6,0.9
		c5.5-1.2,11-2.5,16.4-4.2c5-1.6,9.9-3.8,14.8-5.7c0.9-0.3,1.9-0.5,2.8-0.8l0.5,0.8c-1.3,1.2-2.8,2.4-3.9,3.8
		c-0.8,1-1.2,2.4-1.8,3.6c1.4,0.2,2.9,1,4,0.6c7.5-2.3,14.9-4.8,22.3-7.2c3.2-1,6.4-2.1,9.6-2.9c0.8-0.2,1.7,0.4,2.6,0.6
		c0.2,0.4,0.3,0.7,0.5,1.1c-1.8,1.3-3.6,2.6-5.4,3.9c-0.2-0.3-0.5-0.6-0.7-0.9c0.9-0.8,1.7-1.6,2.7-2.5c-3.8-0.6-11.5,3.4-13.1,6.7
		c-0.8,1.8-0.3,3,1.6,3c2.5,0,5.2,0,7.5-0.8c7.1-2.3,14.1-4.8,21-7.6c4.8-2,9.4-3.3,14.2,0c-8.1-2.3-13.9,0.7-18.3,7.3
		c9.2,0.9,15.8-5.9,24.2-7.7c-0.4,0.4-0.8,0.8-1.1,1.2c-0.9,1.5-1.7,3-2.5,4.5c1.8,0.1,3.7,0.7,5.3,0.2c4.4-1.5,8.7-3.5,13.1-5.3
		c1.1-0.5,2.3-0.8,3.4-1.1c0.2,0.3,0.3,0.7,0.5,1c-1,0.6-2,1.3-3.2,1.8c-4.7,1.9-9.3,4-14.1,5.5c-4.5,1.4-6.2,0.5-7.9-3
		c-4.9,1.7-9.7,3.6-14.7,5c-4.1,1.1-5.1,0.2-5.6-4c-5.3,1.4-10.6,2.8-16,4.1c-1.4,0.3-2.9,0.5-4.3,0.5c-5.1,0.1-5.9-0.6-5.7-5.6
		c-4.8,1.2-9.5,2.5-14.2,3.6c-1.2,0.3-2.4,0.4-3.6,0.5c-4.6,0.2-5.4-0.8-4-5.8c-1.6,0.5-2.9,1-4.2,1.3c-6.6,1.9-13.1,4-19.8,5.6
		c-2.8,0.7-6.5,1.9-8.2-1.4c-1.6-3,1.9-4.8,3.5-6.8c0.2-0.3,0.4-0.6,0.9-1.1c-0.7-1.4-1.4-2.8-2.2-4.3c-5.7,2.5-11.1,5.1-16.7,7.2
		c-6.1,2.2-12.3,3.9-18.6,5.6c-1.4,0.4-4,0-4.5-0.9c-0.7-1.2-0.2-3.3,0.1-5C113.9,65.6,114.7,64.4,115.7,62.1 M45.2,32
		c1.8,0.6,2.4,0.9,2.9,1c23.5,5,46.2,2.8,67.9-7.7c3.9-1.9,7.5-4.9,10.4-8.2c5.3-6.1,3-12.5-4.8-14.2c-7.7-1.7-15.3-0.7-22.9,0.9
		C82.5,7.3,67.3,13,54,23.1C51,25.5,48.5,28.6,45.2,32 M157.7,53.1c0.3,0.4,0.5,0.8,0.8,1.2c3.2-1.9,6.3-3.8,9.5-5.6
		c-0.2-0.3-0.4-0.7-0.6-1C164.1,49.5,160.9,51.3,157.7,53.1"/>
	<path class="st0" d="M192,56.4c2-1.6,3.9-3.2,5.9-4.9c0.3,0.4,0.7,0.8,1,1.3c-2,1.6-4,3.3-5.9,4.9C192.6,57.3,192.3,56.8,192,56.4"
		/>
	<path class="st0" d="M471.3,53c-2,1.6-4,3.2-6.1,4.7c-0.3-0.4-0.6-0.8-0.9-1.1c1.9-1.6,3.9-3.3,5.8-4.9
		C470.5,52,470.9,52.5,471.3,53"/>
	<path class="st0" d="M604.2,52.8c-1.9,1.7-3.8,3.3-5.6,5c-0.4-0.4-0.7-0.8-1.1-1.2c1.9-1.7,3.7-3.3,5.6-5
		C603.4,52,603.8,52.4,604.2,52.8"/>
</g>
</svg>
