<?xml version="1.0" encoding="iso-8859-1"?>
<!-- Generator: Adobe Illustrator 23.0.1, SVG Export Plug-In . SVG Version: 6.00 Build 0)  -->
<svg version="1.1" id="Livello_1" xmlns="http://www.w3.org/2000/svg" xmlns:xlink="http://www.w3.org/1999/xlink" x="0px" y="0px"
	 viewBox="0 0 680.31 340.16" style="enable-background:new 0 0 680.31 340.16;" xml:space="preserve">
<g>
	<path style="fill:#FFFFFF;" d="M119.646,98.862c0.36-0.6,1.56-0.24,2.52,0.84c1.08,0.96,1.56,2.28,1.08,2.76l-0.72,0.96
		c39.118,0.12,83.396,2.16,83.997,9.24c0.12,0.96-0.72,1.2-1.8,0.48c-1.08-0.6-2.04-1.92-2.16-2.88
		c-0.24-2.88-45.358-3.12-83.157-2.76c-6,7.8-17.639,23.279-28.559,39.119c15-0.72,31.438,0,32.519,5.64
		c0.24,0.96-0.48,1.32-1.56,0.72c-1.08-0.48-2.16-1.8-2.28-2.76c-0.36-2.04-17.399-0.84-31.438,0.479
		c-15.12,22.319-27.479,44.038-18.959,44.398c10.8,0.6,22.679,0,32.639-0.36c14.879-0.72,26.279-1.199,28.199,4.2
		c0.36,1.08-0.12,1.68-1.08,1.32c-1.08-0.36-2.16-1.561-2.64-2.641c0-0.12-9.479,0.721-21.839,1.2
		c-10.2,0.48-21.959,1.08-32.999,0.48c-14.039-0.721-3.359-24.119,11.4-48.118c-7.44,0.72-13.08,1.439-13.2,1.439
		c-0.72,0.12-2.04-0.72-2.76-1.92c-0.72-1.08-0.72-2.16,0.12-2.28c0,0,8.399-0.96,18.599-1.56c1.68-2.64,3.48-5.399,5.16-8.04
		c-0.12-0.48-0.24-0.96,0-1.32c0,0,18.719-27.119-17.159-27.839c-3.24-0.12-5.16-0.12-6-0.24c-12.599-1.68-14.399-3.12-7.199-4.08
		c-0.72-0.48,0-0.6,3.12-0.36c2.52-0.24,5.76-0.36,9.479-0.6c6.36-0.24,15.959-0.6,27.119-0.72c5.04-0.12,10.439-0.24,15.959-0.24
		C118.327,100.542,119.526,98.862,119.646,98.862z M100.447,124.781c4.68-6.72,9.12-12.599,12.479-17.159
		c-3.6,0-7.08,0.12-10.319,0.12c-5.16,0.12-9.96,0.24-14.28,0.36C98.407,111.702,100.807,118.302,100.447,124.781z"/>
	<path style="fill:#FFFFFF;" d="M141.249,158.02c0.36-0.6,1.56-0.36,2.52,0.6c1.08,0.96,1.56,2.28,1.2,2.88l-3,5.4
		c6.48-5.4,13.56-10.68,16.2-9.959h0.24c3.6,1.08,4.2,3.359,3.36,6.359c-0.36,1.32-1.2,2.88-2.04,4.68
		c-1.56,3.12-3.36,6.601-3.36,6.601c3.84,2.52,16.799-8.88,16.919-8.88c0.36-0.48,1.68-2.04,2.64-0.96c1.08,0.96,0.36,1.2-0.12,1.8
		c0,0-13.08,15.479-19.319,11.399c-5.4-3.479-2.76-8.76-0.48-13.439c0.48-0.96,0.96-1.92,1.32-2.88
		c-6.839,3.6-22.799,18.839-23.279,19.319c-0.36,0.479-1.44,0.12-2.4-0.72c-0.96-1.08-1.56-2.28-1.2-2.88L141.249,158.02z"/>
	<path style="fill:#FFFFFF;" d="M180.848,152.021c0.36-0.6,1.56-0.24,2.52,0.72c1.08,0.96,1.56,2.28,1.2,2.88l-4.439,7.08
		c4.2-2.04,9.959-3.96,12.359-0.96c1.08,1.2,0.72,3.959,2.28,4.08c2.28,0.12,5.64-0.36,8.879-1.32c0.72-0.24,1.44-0.84,2.16,0.24
		c0.84,1.2,0.36,1.56-0.36,1.68c-3.48,1.08-9.24,2.28-11.76,2.04c-3.12-0.24-4.08-1.08-6.72-4.2c-1.8-2.16-12.479,7.32-12.479,7.32
		c-0.24,0.12-6.479,10.68-7.08,11.759c-0.36,0.601-1.56,0.24-2.52-0.72c-1.08-0.96-1.56-2.279-1.2-2.88L180.848,152.021z"/>
	<path style="fill:#FFFFFF;" d="M211.687,155.38c0.6-0.48,1.8,0,2.76,1.08c0.96,1.08,1.32,2.28,0.72,2.76
		c-2.64,2.28-6.96,7.439-9.6,12.48c-1.68,3.359-1.56,5.279-0.36,5.879c4.919,0.721,18.239-12.239,18.239-12.359
		c0.479-0.48,1.32-1.44,2.28-0.36c1.08,1.08,0.6,1.44,0.12,1.92c-0.12,0-20.039,21.599-25.199,12.6c-1.68-3-0.84-7.08,1.2-11.16
		C204.487,163.06,208.927,157.66,211.687,155.38z M219.126,151.9c-0.479,0.6-1.68,0.12-2.64-0.84c-0.96-1.08-1.44-2.28-0.96-2.88
		l6.72-7.68c0.48-0.6,1.56-0.12,2.64,0.84c0.96,1.08,1.32,2.28,0.96,2.88L219.126,151.9z"/>
	<path style="fill:#FFFFFF;" d="M240.125,167.62c-0.36,0.72-1.44,0.48-2.4-0.48c-1.08-0.96-1.68-2.28-1.44-2.88
		c0.12,0,2.04-4.2,1.56-4.2c-2.28-0.12-7.2,3.12-10.92,7.32c-1.439,1.56-2.64,3.24-3.6,4.92c-0.84,1.56-1.32,3.24-1.44,4.68
		c0,1.08,0.24,2.04,0.84,2.64c5.04,4.44,29.639-14.039,29.759-14.039c0.48-0.12,1.56-1.56,2.4-1.32c0.96,1.08,1.32,2.28,0.84,2.76
		c-0.12,0-26.039,22.199-34.078,15c-2.64-2.4-3.72-5.04-3.6-7.68c0-1.92,0.6-3.72,1.56-5.52c0.96-1.8,2.28-3.48,3.72-5.16
		c3.96-4.44,9.359-7.92,12.12-7.8C245.646,156.22,240.125,167.62,240.125,167.62z"/>
	<path style="fill:#FFFFFF;" d="M273.484,162.7c0.48,1.2,0.12,1.92-0.84,1.68s-2.16-1.32-2.64-2.4c-2.4-2.28-8.28,0.48-10.439,2.28
		c-4.44,3.6-6.96,7.92-8.28,13.439c4.2-1.199,15.119-13.919,15.119-13.919c0.48-0.48,1.56-0.12,2.64,0.96
		c0.84,0.96,1.32,2.04,0.96,2.64c-0.24,0.6-1.68,3.72-0.96,7.08c0.48,2.88,16.08-10.2,16.319-10.32c0.48-0.479,1.44-1.08,2.4-0.12
		c0.96,1.08,0.84,2.04,0.36,2.52c-7.919,7.08-12.599,11.279-15.839,12.959c-5.52,2.88-9.72,1.2-9.6-4.68
		c-4.32,4.08-8.76,7.8-11.399,6.6c-0.96-0.359-1.68-1.079-2.4-1.8c-1.2-1.56-1.68-3.239-1.44-5.039c0.12-1.44,0.6-3,1.32-4.561
		c1.56-3.36,4.32-7.08,7.44-9.6C261.604,155.98,271.444,155.74,273.484,162.7z"/>
	<path style="fill:#FFFFFF;" d="M383.279,142.061c-0.84,0.12-2.039-0.84-2.76-2.04c-0.72-1.08-0.6-2.04,0.24-2.04
		c13.8-0.6,29.519-8.04,41.278-17.279c5.76-4.44,10.439-9.24,13.439-13.919c3-4.44,4.319-8.52,3.479-11.76
		c-0.359-0.96-0.84-1.68-1.56-2.28c-0.479-0.48-1.2-0.84-1.92-1.08c-7.2-2.88-20.64,0-35.158,7.439
		c-14.76,7.56-33.959,18.479-53.278,44.398c-5.52,7.439-10.439,15.239-13.919,23.759c-4.8,11.76-5.88,22.079-3.48,29.639
		c1.32,4.2,3.84,7.439,7.44,9.359c4.439,2.16,10.439,2.88,17.879,1.681c17.639-2.88,42.958-16.68,74.757-46.079
		c0.479-0.36,1.68,0.12,2.64,1.08c0.96,1.08,1.32,2.28,0.84,2.76c-32.038,29.639-57.478,43.438-75.477,46.438
		c-8.04,1.32-14.76,0.36-19.919-2.279c-5.88-3-9.96-7.92-12-14.399c-2.52-8.28-1.439-19.319,3.48-31.559
		c3.479-8.64,8.64-16.559,14.159-24.119c19.439-26.039,38.758-37.079,53.638-44.638c14.999-7.68,29.159-10.68,37.318-7.319
		c1.2,0.479,2.4,1.2,3.6,2.04c2.4,1.92,3.96,4.2,4.681,6.72c1.199,4.08-0.24,8.88-3.48,13.799c-3.12,4.68-7.92,9.72-13.68,14.16
		C413.519,133.901,397.439,141.581,383.279,142.061z"/>
	<path style="fill:#FFFFFF;" d="M455.28,120.102c0.36-0.6,1.561-0.24,2.521,0.72c1.08,0.96,1.56,2.28,1.199,2.88L432.722,166.3
		c6.6-5.04,13.319-8.04,14.039-0.12c0.12,1.08,0.24,8.88,0.24,8.88c0.479,0.6,4.319-0.36,14.88-10.2
		c0.479-0.48,1.199-1.56,2.159-0.6c0.96,1.08,0.96,1.92,0.48,2.4c-11.88,11.04-17.64,13.799-20.399,10.919
		c-2.88-3.119-1.92-8.759-2.28-12.959c-0.359-3-19.438,18.479-19.559,18.6c-0.36,0.479-1.44,0.119-2.4-0.841
		c-1.08-0.96-1.56-2.279-1.2-2.88L455.28,120.102z"/>
	<path style="fill:#FFFFFF;" d="M469.801,155.38c0.6-0.48,1.8,0,2.76,1.08c0.96,1.08,1.32,2.28,0.72,2.76
		c-2.64,2.28-6.959,7.439-9.6,12.48c-1.68,3.359-1.56,5.279-0.359,5.879c4.92,0.721,18.239-12.239,18.239-12.359
		c0.479-0.48,1.319-1.44,2.279-0.36c1.08,1.08,0.601,1.44,0.12,1.92c-0.12,0-20.039,21.599-25.198,12.6
		c-1.681-3-0.841-7.08,1.199-11.16C462.602,163.06,467.041,157.66,469.801,155.38z M477.24,151.9c-0.479,0.6-1.68,0.12-2.64-0.84
		c-0.96-1.08-1.44-2.28-0.96-2.88l6.72-7.68c0.479-0.6,1.56-0.12,2.64,0.84c0.96,1.08,1.32,2.28,0.96,2.88L477.24,151.9z"/>
	<path style="fill:#FFFFFF;" d="M498.24,167.62c-0.36,0.72-1.439,0.48-2.4-0.48c-1.079-0.96-1.68-2.28-1.439-2.88
		c0.12,0,2.04-4.2,1.56-4.2c-2.279-0.12-7.199,3.12-10.919,7.32c-1.44,1.56-2.641,3.24-3.6,4.92c-0.841,1.56-1.32,3.24-1.44,4.68
		c0,1.08,0.24,2.04,0.84,2.64c5.04,4.44,29.639-14.039,29.759-14.039c0.48-0.12,1.561-1.56,2.4-1.32c0.96,1.08,1.319,2.28,0.84,2.76
		c-0.12,0-26.039,22.199-34.079,15c-2.64-2.4-3.72-5.04-3.6-7.68c0-1.92,0.6-3.72,1.56-5.52c0.96-1.8,2.28-3.48,3.721-5.16
		c3.959-4.44,9.359-7.92,12.119-7.8C503.76,156.22,498.24,167.62,498.24,167.62z"/>
	<path style="fill:#FFFFFF;" d="M528.119,167.62c-0.36,0.72-1.439,0.48-2.4-0.48c-1.079-0.96-1.68-2.28-1.439-2.88
		c0.12,0,2.04-4.2,1.56-4.2c-2.279-0.12-7.199,3.12-10.919,7.32c-1.44,1.56-2.641,3.24-3.6,4.92c-0.841,1.56-1.32,3.24-1.44,4.68
		c0,1.08,0.24,2.04,0.84,2.64c5.04,4.44,29.639-14.039,29.759-14.039c0.48-0.12,1.561-1.56,2.4-1.32c0.96,1.08,1.319,2.28,0.84,2.76
		c-0.12,0-26.039,22.199-34.079,15c-2.64-2.4-3.72-5.04-3.6-7.68c0-1.92,0.6-3.72,1.56-5.52c0.96-1.8,2.28-3.48,3.721-5.16
		c3.959-4.44,9.359-7.92,12.119-7.8C533.639,156.22,528.119,167.62,528.119,167.62z"/>
	<path style="fill:#FFFFFF;" d="M568.197,120.102c0.36-0.6,1.561-0.24,2.521,0.72c1.08,0.96,1.56,2.28,1.2,2.88L545.639,166.3
		c6.6-5.04,13.319-8.04,14.039-0.12c0.12,1.08,0.24,8.88,0.24,8.88c0.48,0.6,4.32-0.36,14.879-10.2c0.48-0.48,1.2-1.56,2.16-0.6
		c0.96,1.08,0.96,1.92,0.48,2.4c-11.88,11.04-17.64,13.799-20.399,10.919c-2.88-3.119-1.92-8.759-2.28-12.959
		c-0.359-3-19.438,18.479-19.559,18.6c-0.36,0.479-1.44,0.119-2.4-0.841c-1.08-0.96-1.56-2.279-1.199-2.88L568.197,120.102z"/>
	<path style="fill:#FFFFFF;" d="M582.719,155.38c0.6-0.48,1.8,0,2.76,1.08c0.96,1.08,1.32,2.28,0.72,2.76
		c-2.64,2.28-6.959,7.439-9.6,12.48c-1.68,3.359-1.56,5.279-0.359,5.879c4.92,0.721,18.239-12.239,18.239-12.359
		c0.479-0.48,1.319-1.44,2.279-0.36c1.08,1.08,0.601,1.44,0.12,1.92c-0.12,0-20.039,21.599-25.198,12.6
		c-1.681-3-0.841-7.08,1.199-11.16C575.52,163.06,579.959,157.66,582.719,155.38z M590.158,151.9c-0.479,0.6-1.68,0.12-2.64-0.84
		c-0.96-1.08-1.44-2.28-0.96-2.88l6.72-7.68c0.479-0.6,1.56-0.12,2.64,0.84c0.96,1.08,1.32,2.28,0.96,2.88L590.158,151.9z"/>
	<path style="fill:#FFFFFF;" d="M598.918,158.86c0.479-0.36,1.68,0.12,2.64,1.2s1.2,2.28,0.72,2.76c-0.359,0.24-0.72,0.48-0.96,0.72
		c-2.52,2.28-4.56,6-5.88,9.72c-0.96,3.12-1.439,6-0.84,7.199c0.601,0.24,1.32,0.24,2.28,0c1.08-0.359,2.399-1.079,3.6-2.279
		c1.68-1.44,3.24-3.6,4.68-6.36c0.84-1.56,1.44-3.24,1.92-4.919c-2.159-1.8-3.72-3.96-4.68-6.12c-0.96-2.16-1.319-4.32-1.2-5.88
		c0.24-1.68,0.96-2.88,2.4-3.12c1.08-0.12,2.04,0.12,3,0.6c1.56,0.84,2.88,2.28,3.72,4.08c0.72,1.32,1.08,2.76,1.319,4.32
		c0.24,1.56,0.24,3.359,0,5.16c2.641,0.48,6.601,0.96,10.8-1.44c0.601-0.36,1.2-0.84,2.16,0.24c0.84,1.08,0.72,1.92,0.12,2.28
		c-5.64,3.12-9.84,3.6-13.56,2.28c-0.479,2.04-1.2,4.2-2.28,6c-1.439,2.76-3.119,5.159-4.92,6.72c-1.439,1.2-2.76,2.16-4.079,2.52
		c-1.561,0.48-3.12,0.36-4.68-0.479c-0.841-0.48-1.681-1.08-2.4-1.92c-0.24-0.24-0.479-0.48-0.72-0.721
		c-1.92-2.76-1.8-7.199-0.48-11.399c1.32-3.96,3.601-7.919,6.24-10.319C598.197,159.46,598.558,159.1,598.918,158.86z
		 M607.678,164.02c0.239-1.92,0.239-3.84,0-5.4c-0.12-1.08-0.36-2.04-0.601-2.64c-0.12,0,0.12,0,0.12,0
		c-0.12-0.12-0.479-0.12-0.84,0c-0.72,0-1.08,0.72-1.2,1.8s0.12,2.4,0.72,3.72C606.237,162.46,606.838,163.3,607.678,164.02z"/>
</g>
</svg>
