<?xml version="1.0" encoding="UTF-8"?>
<svg id="Livello_1" data-name="Livello 1" xmlns="http://www.w3.org/2000/svg" viewBox="0 0 1163.78 1659.97">
  <defs>
    <style>
      .cls-1 {
        fill: none;
        stroke: #4e3fd0;
        stroke-linecap: round;
        stroke-linejoin: round;
        stroke-width: 80.07px;
      }
    </style>
  </defs>
  <path class="cls-1" d="m668.52,399.65h-358.92C147.77,561.48,40.03,791.72,40.03,977.32v418.22c0,123.93,100.47,224.4,224.4,224.4h634.92c123.93,0,224.4-100.47,224.4-224.4v-540.66c0-251.41-203.81-455.22-455.22-455.22Z"/>
  <rect class="cls-1" x="272.76" y="278.61" width="492.06" height="121.04" rx="60.52" ry="60.52"/>
  <path class="cls-1" d="m507.11,40.03h39.15c95.94,0,173.83,77.89,173.83,173.83v64.75h-386.81v-64.75c0-95.94,77.89-173.83,173.83-173.83Z"/>
  <path class="cls-1" d="m935.86,983.81c166.46-7.4-76.31-523.64-194.72-431.54-118.41,92.1,76.31,436.8,194.72,431.54Z"/>
</svg>